<svg class="rich-terminal" viewBox="0 0 1519 806.4" xmlns="http://www.w3.org/2000/svg">
    <!-- Generated with Rich https://www.textualize.io -->
    <style>

    @font-face {
        font-family: "Fira Code";
        src: local("FiraCode-Regular"),
                url("https://cdnjs.cloudflare.com/ajax/libs/firacode/6.2.0/woff2/FiraCode-Regular.woff2") format("woff2"),
                url("https://cdnjs.cloudflare.com/ajax/libs/firacode/6.2.0/woff/FiraCode-Regular.woff") format("woff");
        font-style: normal;
        font-weight: 400;
    }
    @font-face {
        font-family: "Fira Code";
        src: local("FiraCode-Bold"),
                url("https://cdnjs.cloudflare.com/ajax/libs/firacode/6.2.0/woff2/FiraCode-Bold.woff2") format("woff2"),
                url("https://cdnjs.cloudflare.com/ajax/libs/firacode/6.2.0/woff/FiraCode-Bold.woff") format("woff");
        font-style: bold;
        font-weight: 700;
    }

    .terminal-93458103-matrix {
        font-family: Fira Code, monospace;
        font-size: 20px;
        line-height: 24.4px;
        font-variant-east-asian: full-width;
    }

    .terminal-93458103-title {
        font-size: 18px;
        font-weight: bold;
        font-family: arial;
    }

    .terminal-93458103-r1 { fill: #c5c8c6 }
.terminal-93458103-r2 { fill: #1e1e1e }
.terminal-93458103-r3 { fill: #cccccc }
.terminal-93458103-r4 { fill: #f5f5f5 }
.terminal-93458103-r5 { fill: #efefef }
.terminal-93458103-r6 { fill: #475675 }
.terminal-93458103-r7 { fill: #dedede }
.terminal-93458103-r8 { fill: #004578;font-weight: bold }
.terminal-93458103-r9 { fill: #1f1f1f }
.terminal-93458103-r10 { fill: #47789b;font-weight: bold }
.terminal-93458103-r11 { fill: #f5f5f5;font-weight: bold }
.terminal-93458103-r12 { fill: #7f9dc5 }
.terminal-93458103-r13 { fill: #0000ff }
.terminal-93458103-r14 { fill: #1f1f1f;font-weight: bold }
.terminal-93458103-r15 { fill: #c7cdd2 }
    </style>

    <defs>
    <clipPath id="terminal-93458103-clip-terminal">
      <rect x="0" y="0" width="1499.6" height="755.4" />
    </clipPath>
    <clipPath id="terminal-93458103-line-0">
    <rect x="0" y="1.5" width="1500.6" height="24.65"/>
            </clipPath>
<clipPath id="terminal-93458103-line-1">
    <rect x="0" y="25.9" width="1500.6" height="24.65"/>
            </clipPath>
<clipPath id="terminal-93458103-line-2">
    <rect x="0" y="50.3" width="1500.6" height="24.65"/>
            </clipPath>
<clipPath id="terminal-93458103-line-3">
    <rect x="0" y="74.7" width="1500.6" height="24.65"/>
            </clipPath>
<clipPath id="terminal-93458103-line-4">
    <rect x="0" y="99.1" width="1500.6" height="24.65"/>
            </clipPath>
<clipPath id="terminal-93458103-line-5">
    <rect x="0" y="123.5" width="1500.6" height="24.65"/>
            </clipPath>
<clipPath id="terminal-93458103-line-6">
    <rect x="0" y="147.9" width="1500.6" height="24.65"/>
            </clipPath>
<clipPath id="terminal-93458103-line-7">
    <rect x="0" y="172.3" width="1500.6" height="24.65"/>
            </clipPath>
<clipPath id="terminal-93458103-line-8">
    <rect x="0" y="196.7" width="1500.6" height="24.65"/>
            </clipPath>
<clipPath id="terminal-93458103-line-9">
    <rect x="0" y="221.1" width="1500.6" height="24.65"/>
            </clipPath>
<clipPath id="terminal-93458103-line-10">
    <rect x="0" y="245.5" width="1500.6" height="24.65"/>
            </clipPath>
<clipPath id="terminal-93458103-line-11">
    <rect x="0" y="269.9" width="1500.6" height="24.65"/>
            </clipPath>
<clipPath id="terminal-93458103-line-12">
    <rect x="0" y="294.3" width="1500.6" height="24.65"/>
            </clipPath>
<clipPath id="terminal-93458103-line-13">
    <rect x="0" y="318.7" width="1500.6" height="24.65"/>
            </clipPath>
<clipPath id="terminal-93458103-line-14">
    <rect x="0" y="343.1" width="1500.6" height="24.65"/>
            </clipPath>
<clipPath id="terminal-93458103-line-15">
    <rect x="0" y="367.5" width="1500.6" height="24.65"/>
            </clipPath>
<clipPath id="terminal-93458103-line-16">
    <rect x="0" y="391.9" width="1500.6" height="24.65"/>
            </clipPath>
<clipPath id="terminal-93458103-line-17">
    <rect x="0" y="416.3" width="1500.6" height="24.65"/>
            </clipPath>
<clipPath id="terminal-93458103-line-18">
    <rect x="0" y="440.7" width="1500.6" height="24.65"/>
            </clipPath>
<clipPath id="terminal-93458103-line-19">
    <rect x="0" y="465.1" width="1500.6" height="24.65"/>
            </clipPath>
<clipPath id="terminal-93458103-line-20">
    <rect x="0" y="489.5" width="1500.6" height="24.65"/>
            </clipPath>
<clipPath id="terminal-93458103-line-21">
    <rect x="0" y="513.9" width="1500.6" height="24.65"/>
            </clipPath>
<clipPath id="terminal-93458103-line-22">
    <rect x="0" y="538.3" width="1500.6" height="24.65"/>
            </clipPath>
<clipPath id="terminal-93458103-line-23">
    <rect x="0" y="562.7" width="1500.6" height="24.65"/>
            </clipPath>
<clipPath id="terminal-93458103-line-24">
    <rect x="0" y="587.1" width="1500.6" height="24.65"/>
            </clipPath>
<clipPath id="terminal-93458103-line-25">
    <rect x="0" y="611.5" width="1500.6" height="24.65"/>
            </clipPath>
<clipPath id="terminal-93458103-line-26">
    <rect x="0" y="635.9" width="1500.6" height="24.65"/>
            </clipPath>
<clipPath id="terminal-93458103-line-27">
    <rect x="0" y="660.3" width="1500.6" height="24.65"/>
            </clipPath>
<clipPath id="terminal-93458103-line-28">
    <rect x="0" y="684.7" width="1500.6" height="24.65"/>
            </clipPath>
<clipPath id="terminal-93458103-line-29">
    <rect x="0" y="709.1" width="1500.6" height="24.65"/>
            </clipPath>
    </defs>

    <rect fill="#292929" stroke="rgba(255,255,255,0.35)" stroke-width="1" x="1" y="1" width="1517" height="804.4" rx="8"/><text class="terminal-93458103-title" fill="#c5c8c6" text-anchor="middle" x="758" y="27">HTTP&#160;Client</text>
            <g transform="translate(26,22)">
            <circle cx="0" cy="0" r="7" fill="#ff5f57"/>
            <circle cx="22" cy="0" r="7" fill="#febc2e"/>
            <circle cx="44" cy="0" r="7" fill="#28c840"/>
            </g>
        
    <g transform="translate(9, 41)" clip-path="url(#terminal-93458103-clip-terminal)">
    <rect fill="#e9e9e9" x="0" y="1.5" width="12.2" height="24.65" shape-rendering="crispEdges"/><rect fill="#e9e9e9" x="12.2" y="1.5" width="12.2" height="24.65" shape-rendering="crispEdges"/><rect fill="#e9e9e9" x="24.4" y="1.5" width="61" height="24.65" shape-rendering="crispEdges"/><rect fill="#e9e9e9" x="85.4" y="1.5" width="12.2" height="24.65" shape-rendering="crispEdges"/><rect fill="#e9e9e9" x="97.6" y="1.5" width="573.4" height="24.65" shape-rendering="crispEdges"/><rect fill="#e9e9e9" x="671" y="1.5" width="134.2" height="24.65" shape-rendering="crispEdges"/><rect fill="#e9e9e9" x="805.2" y="1.5" width="573.4" height="24.65" shape-rendering="crispEdges"/><rect fill="#e9e9e9" x="1378.6" y="1.5" width="12.2" height="24.65" shape-rendering="crispEdges"/><rect fill="#e9e9e9" x="1390.8" y="1.5" width="0" height="24.65" shape-rendering="crispEdges"/><rect fill="#e9e9e9" x="1390.8" y="1.5" width="97.6" height="24.65" shape-rendering="crispEdges"/><rect fill="#e9e9e9" x="1488.4" y="1.5" width="12.2" height="24.65" shape-rendering="crispEdges"/><rect fill="#f5f5f5" x="0" y="25.9" width="12.2" height="24.65" shape-rendering="crispEdges"/><rect fill="#f5f5f5" x="12.2" y="25.9" width="97.6" height="24.65" shape-rendering="crispEdges"/><rect fill="#f5f5f5" x="109.8" y="25.9" width="12.2" height="24.65" shape-rendering="crispEdges"/><rect fill="#efefef" x="122" y="25.9" width="12.2" height="24.65" shape-rendering="crispEdges"/><rect fill="#ebebeb" x="134.2" y="25.9" width="1159" height="24.65" shape-rendering="crispEdges"/><rect fill="#f5f5f5" x="1293.2" y="25.9" width="12.2" height="24.65" shape-rendering="crispEdges"/><rect fill="#47789b" x="1305.4" y="25.9" width="195.2" height="24.65" shape-rendering="crispEdges"/><rect fill="#f5f5f5" x="0" y="50.3" width="12.2" height="24.65" shape-rendering="crispEdges"/><rect fill="#f5f5f5" x="12.2" y="50.3" width="12.2" height="24.65" shape-rendering="crispEdges"/><rect fill="#dedede" x="24.4" y="50.3" width="12.2" height="24.65" shape-rendering="crispEdges"/><rect fill="#f5f5f5" x="36.6" y="50.3" width="12.2" height="24.65" shape-rendering="crispEdges"/><rect fill="#f5f5f5" x="48.8" y="50.3" width="12.2" height="24.65" shape-rendering="crispEdges"/><rect fill="#f5f5f5" x="61" y="50.3" width="36.6" height="24.65" shape-rendering="crispEdges"/><rect fill="#f5f5f5" x="97.6" y="50.3" width="12.2" height="24.65" shape-rendering="crispEdges"/><rect fill="#f5f5f5" x="109.8" y="50.3" width="12.2" height="24.65" shape-rendering="crispEdges"/><rect fill="#efefef" x="122" y="50.3" width="12.2" height="24.65" shape-rendering="crispEdges"/><rect fill="#ebebeb" x="134.2" y="50.3" width="24.4" height="24.65" shape-rendering="crispEdges"/><rect fill="#ebebeb" x="158.6" y="50.3" width="231.8" height="24.65" shape-rendering="crispEdges"/><rect fill="#ebebeb" x="390.4" y="50.3" width="878.4" height="24.65" shape-rendering="crispEdges"/><rect fill="#ebebeb" x="1268.8" y="50.3" width="24.4" height="24.65" shape-rendering="crispEdges"/><rect fill="#f5f5f5" x="1293.2" y="50.3" width="12.2" height="24.65" shape-rendering="crispEdges"/><rect fill="#47789b" x="1305.4" y="50.3" width="73.2" height="24.65" shape-rendering="crispEdges"/><rect fill="#e2e8ed" x="1378.6" y="50.3" width="12.2" height="24.65" shape-rendering="crispEdges"/><rect fill="#e2e8ed" x="1390.8" y="50.3" width="24.4" height="24.65" shape-rendering="crispEdges"/><rect fill="#e2e8ed" x="1415.2" y="50.3" width="12.2" height="24.65" shape-rendering="crispEdges"/><rect fill="#47789b" x="1427.4" y="50.3" width="73.2" height="24.65" shape-rendering="crispEdges"/><rect fill="#f5f5f5" x="0" y="74.7" width="12.2" height="24.65" shape-rendering="crispEdges"/><rect fill="#f5f5f5" x="12.2" y="74.7" width="12.2" height="24.65" shape-rendering="crispEdges"/><rect fill="#dedede" x="24.4" y="74.7" width="12.2" height="24.65" shape-rendering="crispEdges"/><rect fill="#f5f5f5" x="36.6" y="74.7" width="12.2" height="24.65" shape-rendering="crispEdges"/><rect fill="#f5f5f5" x="48.8" y="74.7" width="12.2" height="24.65" shape-rendering="crispEdges"/><rect fill="#f5f5f5" x="61" y="74.7" width="48.8" height="24.65" shape-rendering="crispEdges"/><rect fill="#f5f5f5" x="109.8" y="74.7" width="12.2" height="24.65" shape-rendering="crispEdges"/><rect fill="#efefef" x="122" y="74.7" width="12.2" height="24.65" shape-rendering="crispEdges"/><rect fill="#ebebeb" x="134.2" y="74.7" width="1159" height="24.65" shape-rendering="crispEdges"/><rect fill="#f5f5f5" x="1293.2" y="74.7" width="12.2" height="24.65" shape-rendering="crispEdges"/><rect fill="#47789b" x="1305.4" y="74.7" width="195.2" height="24.65" shape-rendering="crispEdges"/><rect fill="#f5f5f5" x="0" y="99.1" width="12.2" height="24.65" shape-rendering="crispEdges"/><rect fill="#f5f5f5" x="12.2" y="99.1" width="1476.2" height="24.65" shape-rendering="crispEdges"/><rect fill="#f5f5f5" x="1488.4" y="99.1" width="12.2" height="24.65" shape-rendering="crispEdges"/><rect fill="#f5f5f5" x="0" y="123.5" width="12.2" height="24.65" shape-rendering="crispEdges"/><rect fill="#f5f5f5" x="12.2" y="123.5" width="268.4" height="24.65" shape-rendering="crispEdges"/><rect fill="#f5f5f5" x="280.6" y="123.5" width="1207.8" height="24.65" shape-rendering="crispEdges"/><rect fill="#f5f5f5" x="1488.4" y="123.5" width="12.2" height="24.65" shape-rendering="crispEdges"/><rect fill="#f5f5f5" x="0" y="147.9" width="12.2" height="24.65" shape-rendering="crispEdges"/><rect fill="#f5f5f5" x="12.2" y="147.9" width="1476.2" height="24.65" shape-rendering="crispEdges"/><rect fill="#f5f5f5" x="1488.4" y="147.9" width="12.2" height="24.65" shape-rendering="crispEdges"/><rect fill="#f5f5f5" x="0" y="172.3" width="12.2" height="24.65" shape-rendering="crispEdges"/><rect fill="#f5f5f5" x="12.2" y="172.3" width="1476.2" height="24.65" shape-rendering="crispEdges"/><rect fill="#f5f5f5" x="1488.4" y="172.3" width="12.2" height="24.65" shape-rendering="crispEdges"/><rect fill="#f5f5f5" x="0" y="196.7" width="12.2" height="24.65" shape-rendering="crispEdges"/><rect fill="#f5f5f5" x="12.2" y="196.7" width="73.2" height="24.65" shape-rendering="crispEdges"/><rect fill="#f5f5f5" x="85.4" y="196.7" width="1403" height="24.65" shape-rendering="crispEdges"/><rect fill="#f5f5f5" x="1488.4" y="196.7" width="12.2" height="24.65" shape-rendering="crispEdges"/><rect fill="#f5f5f5" x="0" y="221.1" width="12.2" height="24.65" shape-rendering="crispEdges"/><rect fill="#f5f5f5" x="12.2" y="221.1" width="1476.2" height="24.65" shape-rendering="crispEdges"/><rect fill="#f5f5f5" x="1488.4" y="221.1" width="12.2" height="24.65" shape-rendering="crispEdges"/><rect fill="#f5f5f5" x="0" y="245.5" width="12.2" height="24.65" shape-rendering="crispEdges"/><rect fill="#f5f5f5" x="12.2" y="245.5" width="1476.2" height="24.65" shape-rendering="crispEdges"/><rect fill="#f5f5f5" x="1488.4" y="245.5" width="12.2" height="24.65" shape-rendering="crispEdges"/><rect fill="#f5f5f5" x="0" y="269.9" width="12.2" height="24.65" shape-rendering="crispEdges"/><rect fill="#f5f5f5" x="12.2" y="269.9" width="195.2" height="24.65" shape-rendering="crispEdges"/><rect fill="#f5f5f5" x="207.4" y="269.9" width="73.2" height="24.65" shape-rendering="crispEdges"/><rect fill="#f5f5f5" x="280.6" y="269.9" width="1183.4" height="24.65" shape-rendering="crispEdges"/><rect fill="#23568b" x="1464" y="269.9" width="24.4" height="24.65" shape-rendering="crispEdges"/><rect fill="#f5f5f5" x="1488.4" y="269.9" width="12.2" height="24.65" shape-rendering="crispEdges"/><rect fill="#f5f5f5" x="0" y="294.3" width="12.2" height="24.65" shape-rendering="crispEdges"/><rect fill="#f5f5f5" x="12.2" y="294.3" width="36.6" height="24.65" shape-rendering="crispEdges"/><rect fill="#f5f5f5" x="48.8" y="294.3" width="97.6" height="24.65" shape-rendering="crispEdges"/><rect fill="#f5f5f5" x="146.4" y="294.3" width="1317.6" height="24.65" shape-rendering="crispEdges"/><rect fill="#23568b" x="1464" y="294.3" width="24.4" height="24.65" shape-rendering="crispEdges"/><rect fill="#f5f5f5" x="1488.4" y="294.3" width="12.2" height="24.65" shape-rendering="crispEdges"/><rect fill="#f5f5f5" x="0" y="318.7" width="12.2" height="24.65" shape-rendering="crispEdges"/><rect fill="#f5f5f5" x="12.2" y="318.7" width="158.6" height="24.65" shape-rendering="crispEdges"/><rect fill="#f5f5f5" x="170.8" y="318.7" width="195.2" height="24.65" shape-rendering="crispEdges"/><rect fill="#f5f5f5" x="366" y="318.7" width="1098" height="24.65" shape-rendering="crispEdges"/><rect fill="#23568b" x="1464" y="318.7" width="24.4" height="24.65" shape-rendering="crispEdges"/><rect fill="#f5f5f5" x="1488.4" y="318.7" width="12.2" height="24.65" shape-rendering="crispEdges"/><rect fill="#f5f5f5" x="0" y="343.1" width="12.2" height="24.65" shape-rendering="crispEdges"/><rect fill="#f5f5f5" x="12.2" y="343.1" width="146.4" height="24.65" shape-rendering="crispEdges"/><rect fill="#f5f5f5" x="158.6" y="343.1" width="317.2" height="24.65" shape-rendering="crispEdges"/><rect fill="#f5f5f5" x="475.8" y="343.1" width="988.2" height="24.65" shape-rendering="crispEdges"/><rect fill="#c7cdd2" x="1464" y="343.1" width="24.4" height="24.65" shape-rendering="crispEdges"/><rect fill="#f5f5f5" x="1488.4" y="343.1" width="12.2" height="24.65" shape-rendering="crispEdges"/><rect fill="#f5f5f5" x="0" y="367.5" width="12.2" height="24.65" shape-rendering="crispEdges"/><rect fill="#f5f5f5" x="12.2" y="367.5" width="48.8" height="24.65" shape-rendering="crispEdges"/><rect fill="#f5f5f5" x="61" y="367.5" width="378.2" height="24.65" shape-rendering="crispEdges"/><rect fill="#f5f5f5" x="439.2" y="367.5" width="1024.8" height="24.65" shape-rendering="crispEdges"/><rect fill="#c7cdd2" x="1464" y="367.5" width="24.4" height="24.65" shape-rendering="crispEdges"/><rect fill="#f5f5f5" x="1488.4" y="367.5" width="12.2" height="24.65" shape-rendering="crispEdges"/><rect fill="#f5f5f5" x="0" y="391.9" width="12.2" height="24.65" shape-rendering="crispEdges"/><rect fill="#f5f5f5" x="12.2" y="391.9" width="1476.2" height="24.65" shape-rendering="crispEdges"/><rect fill="#f5f5f5" x="1488.4" y="391.9" width="12.2" height="24.65" shape-rendering="crispEdges"/><rect fill="#f5f5f5" x="0" y="416.3" width="12.2" height="24.65" shape-rendering="crispEdges"/><rect fill="#f5f5f5" x="12.2" y="416.3" width="1476.2" height="24.65" shape-rendering="crispEdges"/><rect fill="#f5f5f5" x="1488.4" y="416.3" width="12.2" height="24.65" shape-rendering="crispEdges"/><rect fill="#f5f5f5" x="0" y="440.7" width="12.2" height="24.65" shape-rendering="crispEdges"/><rect fill="#f5f5f5" x="12.2" y="440.7" width="183" height="24.65" shape-rendering="crispEdges"/><rect fill="#f5f5f5" x="195.2" y="440.7" width="1268.8" height="24.65" shape-rendering="crispEdges"/><rect fill="#23568b" x="1464" y="440.7" width="24.4" height="24.65" shape-rendering="crispEdges"/><rect fill="#f5f5f5" x="1488.4" y="440.7" width="12.2" height="24.65" shape-rendering="crispEdges"/><rect fill="#f5f5f5" x="0" y="465.1" width="12.2" height="24.65" shape-rendering="crispEdges"/><rect fill="#f5f5f5" x="12.2" y="465.1" width="73.2" height="24.65" shape-rendering="crispEdges"/><rect fill="#f5f5f5" x="85.4" y="465.1" width="1378.6" height="24.65" shape-rendering="crispEdges"/><rect fill="#23568b" x="1464" y="465.1" width="24.4" height="24.65" shape-rendering="crispEdges"/><rect fill="#f5f5f5" x="1488.4" y="465.1" width="12.2" height="24.65" shape-rendering="crispEdges"/><rect fill="#f5f5f5" x="0" y="489.5" width="12.2" height="24.65" shape-rendering="crispEdges"/><rect fill="#f5f5f5" x="12.2" y="489.5" width="73.2" height="24.65" shape-rendering="crispEdges"/><rect fill="#f5f5f5" x="85.4" y="489.5" width="1378.6" height="24.65" shape-rendering="crispEdges"/><rect fill="#23568b" x="1464" y="489.5" width="24.4" height="24.65" shape-rendering="crispEdges"/><rect fill="#f5f5f5" x="1488.4" y="489.5" width="12.2" height="24.65" shape-rendering="crispEdges"/><rect fill="#f5f5f5" x="0" y="513.9" width="12.2" height="24.65" shape-rendering="crispEdges"/><rect fill="#f5f5f5" x="12.2" y="513.9" width="402.6" height="24.65" shape-rendering="crispEdges"/><rect fill="#f5f5f5" x="414.8" y="513.9" width="1049.2" height="24.65" shape-rendering="crispEdges"/><rect fill="#c7cdd2" x="1464" y="513.9" width="24.4" height="24.65" shape-rendering="crispEdges"/><rect fill="#f5f5f5" x="1488.4" y="513.9" width="12.2" height="24.65" shape-rendering="crispEdges"/><rect fill="#f5f5f5" x="0" y="538.3" width="12.2" height="24.65" shape-rendering="crispEdges"/><rect fill="#f5f5f5" x="12.2" y="538.3" width="1451.8" height="24.65" shape-rendering="crispEdges"/><rect fill="#c7cdd2" x="1464" y="538.3" width="24.4" height="24.65" shape-rendering="crispEdges"/><rect fill="#f5f5f5" x="1488.4" y="538.3" width="12.2" height="24.65" shape-rendering="crispEdges"/><rect fill="#f5f5f5" x="0" y="562.7" width="12.2" height="24.65" shape-rendering="crispEdges"/><rect fill="#f5f5f5" x="12.2" y="562.7" width="341.6" height="24.65" shape-rendering="crispEdges"/><rect fill="#f5f5f5" x="353.8" y="562.7" width="1110.2" height="24.65" shape-rendering="crispEdges"/><rect fill="#c7cdd2" x="1464" y="562.7" width="24.4" height="24.65" shape-rendering="crispEdges"/><rect fill="#f5f5f5" x="1488.4" y="562.7" width="12.2" height="24.65" shape-rendering="crispEdges"/><rect fill="#f5f5f5" x="0" y="587.1" width="12.2" height="24.65" shape-rendering="crispEdges"/><rect fill="#f5f5f5" x="12.2" y="587.1" width="890.6" height="24.65" shape-rendering="crispEdges"/><rect fill="#f5f5f5" x="902.8" y="587.1" width="561.2" height="24.65" shape-rendering="crispEdges"/><rect fill="#c7cdd2" x="1464" y="587.1" width="24.4" height="24.65" shape-rendering="crispEdges"/><rect fill="#f5f5f5" x="1488.4" y="587.1" width="12.2" height="24.65" shape-rendering="crispEdges"/><rect fill="#f5f5f5" x="0" y="611.5" width="12.2" height="24.65" shape-rendering="crispEdges"/><rect fill="#f5f5f5" x="12.2" y="611.5" width="902.8" height="24.65" shape-rendering="crispEdges"/><rect fill="#f5f5f5" x="915" y="611.5" width="549" height="24.65" shape-rendering="crispEdges"/><rect fill="#c7cdd2" x="1464" y="611.5" width="24.4" height="24.65" shape-rendering="crispEdges"/><rect fill="#f5f5f5" x="1488.4" y="611.5" width="12.2" height="24.65" shape-rendering="crispEdges"/><rect fill="#f5f5f5" x="0" y="635.9" width="12.2" height="24.65" shape-rendering="crispEdges"/><rect fill="#f5f5f5" x="12.2" y="635.9" width="329.4" height="24.65" shape-rendering="crispEdges"/><rect fill="#f5f5f5" x="341.6" y="635.9" width="1122.4" height="24.65" shape-rendering="crispEdges"/><rect fill="#c7cdd2" x="1464" y="635.9" width="24.4" height="24.65" shape-rendering="crispEdges"/><rect fill="#f5f5f5" x="1488.4" y="635.9" width="12.2" height="24.65" shape-rendering="crispEdges"/><rect fill="#f5f5f5" x="0" y="660.3" width="12.2" height="24.65" shape-rendering="crispEdges"/><rect fill="#f5f5f5" x="12.2" y="660.3" width="122" height="24.65" shape-rendering="crispEdges"/><rect fill="#f5f5f5" x="134.2" y="660.3" width="1329.8" height="24.65" shape-rendering="crispEdges"/><rect fill="#c7cdd2" x="1464" y="660.3" width="24.4" height="24.65" shape-rendering="crispEdges"/><rect fill="#f5f5f5" x="1488.4" y="660.3" width="12.2" height="24.65" shape-rendering="crispEdges"/><rect fill="#f5f5f5" x="0" y="684.7" width="12.2" height="24.65" shape-rendering="crispEdges"/><rect fill="#f5f5f5" x="12.2" y="684.7" width="414.8" height="24.65" shape-rendering="crispEdges"/><rect fill="#f5f5f5" x="427" y="684.7" width="1037" height="24.65" shape-rendering="crispEdges"/><rect fill="#c7cdd2" x="1464" y="684.7" width="24.4" height="24.65" shape-rendering="crispEdges"/><rect fill="#f5f5f5" x="1488.4" y="684.7" width="12.2" height="24.65" shape-rendering="crispEdges"/><rect fill="#f5f5f5" x="0" y="709.1" width="12.2" height="24.65" shape-rendering="crispEdges"/><rect fill="#f5f5f5" x="12.2" y="709.1" width="219.6" height="24.65" shape-rendering="crispEdges"/><rect fill="#f5f5f5" x="231.8" y="709.1" width="1232.2" height="24.65" shape-rendering="crispEdges"/><rect fill="#c7cdd2" x="1464" y="709.1" width="24.4" height="24.65" shape-rendering="crispEdges"/><rect fill="#f5f5f5" x="1488.4" y="709.1" width="12.2" height="24.65" shape-rendering="crispEdges"/><rect fill="#f5f5f5" x="0" y="733.5" width="12.2" height="24.65" shape-rendering="crispEdges"/><rect fill="#f5f5f5" x="12.2" y="733.5" width="1476.2" height="24.65" shape-rendering="crispEdges"/><rect fill="#f5f5f5" x="1488.4" y="733.5" width="12.2" height="24.65" shape-rendering="crispEdges"/>
    <g class="terminal-93458103-matrix">
    <text class="terminal-93458103-r2" x="12.2" y="20" textLength="12.2" clip-path="url(#terminal-93458103-line-0)">⭘</text><text class="terminal-93458103-r2" x="671" y="20" textLength="134.2" clip-path="url(#terminal-93458103-line-0)">HTTP&#160;Client</text><text class="terminal-93458103-r1" x="1500.6" y="20" textLength="12.2" clip-path="url(#terminal-93458103-line-0)">
</text><text class="terminal-93458103-r3" x="0" y="44.4" textLength="12.2" clip-path="url(#terminal-93458103-line-1)">╭</text><text class="terminal-93458103-r3" x="12.2" y="44.4" textLength="97.6" clip-path="url(#terminal-93458103-line-1)">────────</text><text class="terminal-93458103-r3" x="109.8" y="44.4" textLength="12.2" clip-path="url(#terminal-93458103-line-1)">╮</text><text class="terminal-93458103-r4" x="122" y="44.4" textLength="12.2" clip-path="url(#terminal-93458103-line-1)">▊</text><text class="terminal-93458103-r5" x="134.2" y="44.4" textLength="1159" clip-path="url(#terminal-93458103-line-1)">▔▔▔▔▔▔▔▔▔▔▔▔▔▔▔▔▔▔▔▔▔▔▔▔▔▔▔▔▔▔▔▔▔▔▔▔▔▔▔▔▔▔▔▔▔▔▔▔▔▔▔▔▔▔▔▔▔▔▔▔▔▔▔▔▔▔▔▔▔▔▔▔▔▔▔▔▔▔▔▔▔▔▔▔▔▔▔▔▔▔▔▔▔▔▔</text><text class="terminal-93458103-r5" x="1293.2" y="44.4" textLength="12.2" clip-path="url(#terminal-93458103-line-1)">▎</text><text class="terminal-93458103-r6" x="1305.4" y="44.4" textLength="195.2" clip-path="url(#terminal-93458103-line-1)">▔▔▔▔▔▔▔▔▔▔▔▔▔▔▔▔</text><text class="terminal-93458103-r1" x="1500.6" y="44.4" textLength="12.2" clip-path="url(#terminal-93458103-line-1)">
</text><text class="terminal-93458103-r3" x="0" y="68.8" textLength="12.2" clip-path="url(#terminal-93458103-line-2)">│</text><text class="terminal-93458103-r7" x="12.2" y="68.8" textLength="12.2" clip-path="url(#terminal-93458103-line-2)">▐</text><text class="terminal-93458103-r8" x="24.4" y="68.8" textLength="12.2" clip-path="url(#terminal-93458103-line-2)">●</text><text class="terminal-93458103-r7" x="36.6" y="68.8" textLength="12.2" clip-path="url(#terminal-93458103-line-2)">▌</text><text class="terminal-93458103-r9" x="61" y="68.8" textLength="36.6" clip-path="url(#terminal-93458103-line-2)">GET</text><text class="terminal-93458103-r3" x="109.8" y="68.8" textLength="12.2" clip-path="url(#terminal-93458103-line-2)">│</text><text class="terminal-93458103-r4" x="122" y="68.8" textLength="12.2" clip-path="url(#terminal-93458103-line-2)">▊</text><text class="terminal-93458103-r2" x="158.6" y="68.8" textLength="231.8" clip-path="url(#terminal-93458103-line-2)">http://example.com&#160;</text><text class="terminal-93458103-r5" x="1293.2" y="68.8" textLength="12.2" clip-path="url(#terminal-93458103-line-2)">▎</text><text class="terminal-93458103-r10" x="1390.8" y="68.8" textLength="24.4" clip-path="url(#terminal-93458103-line-2)">GO</text><text class="terminal-93458103-r1" x="1500.6" y="68.8" textLength="12.2" clip-path="url(#terminal-93458103-line-2)">
</text><text class="terminal-93458103-r3" x="0" y="93.2" textLength="12.2" clip-path="url(#terminal-93458103-line-3)">│</text><text class="terminal-93458103-r7" x="12.2" y="93.2" textLength="12.2" clip-path="url(#terminal-93458103-line-3)">▐</text><text class="terminal-93458103-r11" x="24.4" y="93.2" textLength="12.2" clip-path="url(#terminal-93458103-line-3)">●</text><text class="terminal-93458103-r7" x="36.6" y="93.2" textLength="12.2" clip-path="url(#terminal-93458103-line-3)">▌</text><text class="terminal-93458103-r9" x="61" y="93.2" textLength="48.8" clip-path="url(#terminal-93458103-line-3)">POST</text><text class="terminal-93458103-r3" x="109.8" y="93.2" textLength="12.2" clip-path="url(#terminal-93458103-line-3)">│</text><text class="terminal-93458103-r4" x="122" y="93.2" textLength="12.2" clip-path="url(#terminal-93458103-line-3)">▊</text><text class="terminal-93458103-r5" x="134.2" y="93.2" textLength="1159" clip-path="url(#terminal-93458103-line-3)">▁▁▁▁▁▁▁▁▁▁▁▁▁▁▁▁▁▁▁▁▁▁▁▁▁▁▁▁▁▁▁▁▁▁▁▁▁▁▁▁▁▁▁▁▁▁▁▁▁▁▁▁▁▁▁▁▁▁▁▁▁▁▁▁▁▁▁▁▁▁▁▁▁▁▁▁▁▁▁▁▁▁▁▁▁▁▁▁▁▁▁▁▁▁▁</text><text class="terminal-93458103-r5" x="1293.2" y="93.2" textLength="12.2" clip-path="url(#terminal-93458103-line-3)">▎</text><text class="terminal-93458103-r12" x="1305.4" y="93.2" textLength="195.2" clip-path="url(#terminal-93458103-line-3)">▁▁▁▁▁▁▁▁▁▁▁▁▁▁▁▁</text><text class="terminal-93458103-r1" x="1500.6" y="93.2" textLength="12.2" clip-path="url(#terminal-93458103-line-3)">
</text><text class="terminal-93458103-r13" x="0" y="117.6" textLength="12.2" clip-path="url(#terminal-93458103-line-4)">┌</text><text class="terminal-93458103-r13" x="12.2" y="117.6" textLength="1476.2" clip-path="url(#terminal-93458103-line-4)">─────────────────────────────────────────────────────────────────────────────────────────────────────────────────────────</text><text class="terminal-93458103-r13" x="1488.4" y="117.6" textLength="12.2" clip-path="url(#terminal-93458103-line-4)">┐</text><text class="terminal-93458103-r1" x="1500.6" y="117.6" textLength="12.2" clip-path="url(#terminal-93458103-line-4)">
</text><text class="terminal-93458103-r13" x="0" y="142" textLength="12.2" clip-path="url(#terminal-93458103-line-5)">│</text><text class="terminal-93458103-r9" x="12.2" y="142" textLength="268.4" clip-path="url(#terminal-93458103-line-5)">GET&#160;http://example.com</text><text class="terminal-93458103-r13" x="1488.4" y="142" textLength="12.2" clip-path="url(#terminal-93458103-line-5)">│</text><text class="terminal-93458103-r1" x="1500.6" y="142" textLength="12.2" clip-path="url(#terminal-93458103-line-5)">
</text><text class="terminal-93458103-r13" x="0" y="166.4" textLength="12.2" clip-path="url(#terminal-93458103-line-6)">└</text><text class="terminal-93458103-r13" x="12.2" y="166.4" textLength="1476.2" clip-path="url(#terminal-93458103-line-6)">─────────────────────────────────────────────────────────────────────────────────────────────────────────────────────────</text><text class="terminal-93458103-r13" x="1488.4" y="166.4" textLength="12.2" clip-path="url(#terminal-93458103-line-6)">┘</text><text class="terminal-93458103-r1" x="1500.6" y="166.4" textLength="12.2" clip-path="url(#terminal-93458103-line-6)">
</text><text class="terminal-93458103-r13" x="0" y="190.8" textLength="12.2" clip-path="url(#terminal-93458103-line-7)">┌</text><text class="terminal-93458103-r13" x="12.2" y="190.8" textLength="1476.2" clip-path="url(#terminal-93458103-line-7)">─────────────────────────────────────────────────────────────────────────────────────────────────────────────────────────</text><text class="terminal-93458103-r13" x="1488.4" y="190.8" textLength="12.2" clip-path="url(#terminal-93458103-line-7)">┐</text><text class="terminal-93458103-r1" x="1500.6" y="190.8" textLength="12.2" clip-path="url(#terminal-93458103-line-7)">
</text><text class="terminal-93458103-r13" x="0" y="215.2" textLength="12.2" clip-path="url(#terminal-93458103-line-8)">│</text><text class="terminal-93458103-r9" x="12.2" y="215.2" textLength="73.2" clip-path="url(#terminal-93458103-line-8)">200&#160;OK</text><text class="terminal-93458103-r13" x="1488.4" y="215.2" textLength="12.2" clip-path="url(#terminal-93458103-line-8)">│</text><text class="terminal-93458103-r1" x="1500.6" y="215.2" textLength="12.2" clip-path="url(#terminal-93458103-line-8)">
</text><text class="terminal-93458103-r13" x="0" y="239.6" textLength="12.2" clip-path="url(#terminal-93458103-line-9)">└</text><text class="terminal-93458103-r13" x="12.2" y="239.6" textLength="1476.2" clip-path="url(#terminal-93458103-line-9)">─────────────────────────────────────────────────────────────────────────────────────────────────────────────────────────</text><text class="terminal-93458103-r13" x="1488.4" y="239.6" textLength="12.2" clip-path="url(#terminal-93458103-line-9)">┘</text><text class="terminal-93458103-r1" x="1500.6" y="239.6" textLength="12.2" clip-path="url(#terminal-93458103-line-9)">
</text><text class="terminal-93458103-r13" x="0" y="264" textLength="12.2" clip-path="url(#terminal-93458103-line-10)">┌</text><text class="terminal-93458103-r13" x="12.2" y="264" textLength="1476.2" clip-path="url(#terminal-93458103-line-10)">─────────────────────────────────────────────────────────────────────────────────────────────────────────────────────────</text><text class="terminal-93458103-r13" x="1488.4" y="264" textLength="12.2" clip-path="url(#terminal-93458103-line-10)">┐</text><text class="terminal-93458103-r1" x="1500.6" y="264" textLength="12.2" clip-path="url(#terminal-93458103-line-10)">
</text><text class="terminal-93458103-r13" x="0" y="288.4" textLength="12.2" clip-path="url(#terminal-93458103-line-11)">│</text><text class="terminal-93458103-r14" x="12.2" y="288.4" textLength="195.2" clip-path="url(#terminal-93458103-line-11)">Content-Encoding</text><text class="terminal-93458103-r9" x="207.4" y="288.4" textLength="73.2" clip-path="url(#terminal-93458103-line-11)">:&#160;gzip</text><text class="terminal-93458103-r13" x="1488.4" y="288.4" textLength="12.2" clip-path="url(#terminal-93458103-line-11)">│</text><text class="terminal-93458103-r1" x="1500.6" y="288.4" textLength="12.2" clip-path="url(#terminal-93458103-line-11)">
</text><text class="terminal-93458103-r13" x="0" y="312.8" textLength="12.2" clip-path="url(#terminal-93458103-line-12)">│</text><text class="terminal-93458103-r14" x="12.2" y="312.8" textLength="36.6" clip-path="url(#terminal-93458103-line-12)">Age</text><text class="terminal-93458103-r9" x="48.8" y="312.8" textLength="97.6" clip-path="url(#terminal-93458103-line-12)">:&#160;151800</text><text class="terminal-93458103-r13" x="1488.4" y="312.8" textLength="12.2" clip-path="url(#terminal-93458103-line-12)">│</text><text class="terminal-93458103-r1" x="1500.6" y="312.8" textLength="12.2" clip-path="url(#terminal-93458103-line-12)">
</text><text class="terminal-93458103-r13" x="0" y="337.2" textLength="12.2" clip-path="url(#terminal-93458103-line-13)">│</text><text class="terminal-93458103-r14" x="12.2" y="337.2" textLength="158.6" clip-path="url(#terminal-93458103-line-13)">Cache-Control</text><text class="terminal-93458103-r9" x="170.8" y="337.2" textLength="195.2" clip-path="url(#terminal-93458103-line-13)">:&#160;max-age=604800</text><text class="terminal-93458103-r15" x="1464" y="337.2" textLength="24.4" clip-path="url(#terminal-93458103-line-13)">▇▇</text><text class="terminal-93458103-r13" x="1488.4" y="337.2" textLength="12.2" clip-path="url(#terminal-93458103-line-13)">│</text><text class="terminal-93458103-r1" x="1500.6" y="337.2" textLength="12.2" clip-path="url(#terminal-93458103-line-13)">
</text><text class="terminal-93458103-r13" x="0" y="361.6" textLength="12.2" clip-path="url(#terminal-93458103-line-14)">│</text><text class="terminal-93458103-r14" x="12.2" y="361.6" textLength="146.4" clip-path="url(#terminal-93458103-line-14)">Content-Type</text><text class="terminal-93458103-r9" x="158.6" y="361.6" textLength="317.2" clip-path="url(#terminal-93458103-line-14)">:&#160;text/html;&#160;charset=UTF-8</text><text class="terminal-93458103-r13" x="1488.4" y="361.6" textLength="12.2" clip-path="url(#terminal-93458103-line-14)">│</text><text class="terminal-93458103-r1" x="1500.6" y="361.6" textLength="12.2" clip-path="url(#terminal-93458103-line-14)">
</text><text class="terminal-93458103-r13" x="0" y="386" textLength="12.2" clip-path="url(#terminal-93458103-line-15)">│</text><text class="terminal-93458103-r14" x="12.2" y="386" textLength="48.8" clip-path="url(#terminal-93458103-line-15)">Date</text><text class="terminal-93458103-r9" x="61" y="386" textLength="378.2" clip-path="url(#terminal-93458103-line-15)">:&#160;Sun,&#160;12&#160;Mar&#160;2023&#160;05:26:52&#160;GMT</text><text class="terminal-93458103-r13" x="1488.4" y="386" textLength="12.2" clip-path="url(#terminal-93458103-line-15)">│</text><text class="terminal-93458103-r1" x="1500.6" y="386" textLength="12.2" clip-path="url(#terminal-93458103-line-15)">
</text><text class="terminal-93458103-r13" x="0" y="410.4" textLength="12.2" clip-path="url(#terminal-93458103-line-16)">└</text><text class="terminal-93458103-r13" x="12.2" y="410.4" textLength="1476.2" clip-path="url(#terminal-93458103-line-16)">─────────────────────────────────────────────────────────────────────────────────────────────────────────────────────────</text><text class="terminal-93458103-r13" x="1488.4" y="410.4" textLength="12.2" clip-path="url(#terminal-93458103-line-16)">┘</text><text class="terminal-93458103-r1" x="1500.6" y="410.4" textLength="12.2" clip-path="url(#terminal-93458103-line-16)">
</text><text class="terminal-93458103-r13" x="0" y="434.8" textLength="12.2" clip-path="url(#terminal-93458103-line-17)">┌</text><text class="terminal-93458103-r13" x="12.2" y="434.8" textLength="1476.2" clip-path="url(#terminal-93458103-line-17)">─────────────────────────────────────────────────────────────────────────────────────────────────────────────────────────</text><text class="terminal-93458103-r13" x="1488.4" y="434.8" textLength="12.2" clip-path="url(#terminal-93458103-line-17)">┐</text><text class="terminal-93458103-r1" x="1500.6" y="434.8" textLength="12.2" clip-path="url(#terminal-93458103-line-17)">
</text><text class="terminal-93458103-r13" x="0" y="459.2" textLength="12.2" clip-path="url(#terminal-93458103-line-18)">│</text><text class="terminal-93458103-r9" x="12.2" y="459.2" textLength="183" clip-path="url(#terminal-93458103-line-18)">&lt;!doctype&#160;html&gt;</text><text class="terminal-93458103-r13" x="1488.4" y="459.2" textLength="12.2" clip-path="url(#terminal-93458103-line-18)">│</text><text class="terminal-93458103-r1" x="1500.6" y="459.2" textLength="12.2" clip-path="url(#terminal-93458103-line-18)">
</text><text class="terminal-93458103-r13" x="0" y="483.6" textLength="12.2" clip-path="url(#terminal-93458103-line-19)">│</text><text class="terminal-93458103-r9" x="12.2" y="483.6" textLength="73.2" clip-path="url(#terminal-93458103-line-19)">&lt;html&gt;</text><text class="terminal-93458103-r13" x="1488.4" y="483.6" textLength="12.2" clip-path="url(#terminal-93458103-line-19)">│</text><text class="terminal-93458103-r1" x="1500.6" y="483.6" textLength="12.2" clip-path="url(#terminal-93458103-line-19)">
</text><text class="terminal-93458103-r13" x="0" y="508" textLength="12.2" clip-path="url(#terminal-93458103-line-20)">│</text><text class="terminal-93458103-r9" x="12.2" y="508" textLength="73.2" clip-path="url(#terminal-93458103-line-20)">&lt;head&gt;</text><text class="terminal-93458103-r13" x="1488.4" y="508" textLength="12.2" clip-path="url(#terminal-93458103-line-20)">│</text><text class="terminal-93458103-r1" x="1500.6" y="508" textLength="12.2" clip-path="url(#terminal-93458103-line-20)">
</text><text class="terminal-93458103-r13" x="0" y="532.4" textLength="12.2" clip-path="url(#terminal-93458103-line-21)">│</text><text class="terminal-93458103-r9" x="12.2" y="532.4" textLength="402.6" clip-path="url(#terminal-93458103-line-21)">&#160;&#160;&#160;&#160;&lt;title&gt;Example&#160;Domain&lt;/title&gt;</text><text class="terminal-93458103-r13" x="1488.4" y="532.4" textLength="12.2" clip-path="url(#terminal-93458103-line-21)">│</text><text class="terminal-93458103-r1" x="1500.6" y="532.4" textLength="12.2" clip-path="url(#terminal-93458103-line-21)">
</text><text class="terminal-93458103-r13" x="0" y="556.8" textLength="12.2" clip-path="url(#terminal-93458103-line-22)">│</text><text class="terminal-93458103-r13" x="1488.4" y="556.8" textLength="12.2" clip-path="url(#terminal-93458103-line-22)">│</text><text class="terminal-93458103-r1" x="1500.6" y="556.8" textLength="12.2" clip-path="url(#terminal-93458103-line-22)">
</text><text class="terminal-93458103-r13" x="0" y="581.2" textLength="12.2" clip-path="url(#terminal-93458103-line-23)">│</text><text class="terminal-93458103-r9" x="12.2" y="581.2" textLength="341.6" clip-path="url(#terminal-93458103-line-23)">&#160;&#160;&#160;&#160;&lt;meta&#160;charset=&quot;utf-8&quot;&#160;/&gt;</text><text class="terminal-93458103-r13" x="1488.4" y="581.2" textLength="12.2" clip-path="url(#terminal-93458103-line-23)">│</text><text class="terminal-93458103-r1" x="1500.6" y="581.2" textLength="12.2" clip-path="url(#terminal-93458103-line-23)">
</text><text class="terminal-93458103-r13" x="0" y="605.6" textLength="12.2" clip-path="url(#terminal-93458103-line-24)">│</text><text class="terminal-93458103-r9" x="12.2" y="605.6" textLength="890.6" clip-path="url(#terminal-93458103-line-24)">&#160;&#160;&#160;&#160;&lt;meta&#160;http-equiv=&quot;Content-type&quot;&#160;content=&quot;text/html;&#160;charset=utf-8&quot;&#160;/&gt;</text><text class="terminal-93458103-r13" x="1488.4" y="605.6" textLength="12.2" clip-path="url(#terminal-93458103-line-24)">│</text><text class="terminal-93458103-r1" x="1500.6" y="605.6" textLength="12.2" clip-path="url(#terminal-93458103-line-24)">
</text><text class="terminal-93458103-r13" x="0" y="630" textLength="12.2" clip-path="url(#terminal-93458103-line-25)">│</text><text class="terminal-93458103-r9" x="12.2" y="630" textLength="902.8" clip-path="url(#terminal-93458103-line-25)">&#160;&#160;&#160;&#160;&lt;meta&#160;name=&quot;viewport&quot;&#160;content=&quot;width=device-width,&#160;initial-scale=1&quot;&#160;/&gt;</text><text class="terminal-93458103-r13" x="1488.4" y="630" textLength="12.2" clip-path="url(#terminal-93458103-line-25)">│</text><text class="terminal-93458103-r1" x="1500.6" y="630" textLength="12.2" clip-path="url(#terminal-93458103-line-25)">
</text><text class="terminal-93458103-r13" x="0" y="654.4" textLength="12.2" clip-path="url(#terminal-93458103-line-26)">│</text><text class="terminal-93458103-r9" x="12.2" y="654.4" textLength="329.4" clip-path="url(#terminal-93458103-line-26)">&#160;&#160;&#160;&#160;&lt;style&#160;type=&quot;text/css&quot;&gt;</text><text class="terminal-93458103-r13" x="1488.4" y="654.4" textLength="12.2" clip-path="url(#terminal-93458103-line-26)">│</text><text class="terminal-93458103-r1" x="1500.6" y="654.4" textLength="12.2" clip-path="url(#terminal-93458103-line-26)">
</text><text class="terminal-93458103-r13" x="0" y="678.8" textLength="12.2" clip-path="url(#terminal-93458103-line-27)">│</text><text class="terminal-93458103-r9" x="12.2" y="678.8" textLength="122" clip-path="url(#terminal-93458103-line-27)">&#160;&#160;&#160;&#160;body&#160;{</text><text class="terminal-93458103-r13" x="1488.4" y="678.8" textLength="12.2" clip-path="url(#terminal-93458103-line-27)">│</text><text class="terminal-93458103-r1" x="1500.6" y="678.8" textLength="12.2" clip-path="url(#terminal-93458103-line-27)">
</text><text class="terminal-93458103-r13" x="0" y="703.2" textLength="12.2" clip-path="url(#terminal-93458103-line-28)">│</text><text class="terminal-93458103-r9" x="12.2" y="703.2" textLength="414.8" clip-path="url(#terminal-93458103-line-28)">&#160;&#160;&#160;&#160;&#160;&#160;&#160;&#160;background-color:&#160;#f0f0f2;</text><text class="terminal-93458103-r13" x="1488.4" y="703.2" textLength="12.2" clip-path="url(#terminal-93458103-line-28)">│</text><text class="terminal-93458103-r1" x="1500.6" y="703.2" textLength="12.2" clip-path="url(#terminal-93458103-line-28)">
</text><text class="terminal-93458103-r13" x="0" y="727.6" textLength="12.2" clip-path="url(#terminal-93458103-line-29)">│</text><text class="terminal-93458103-r9" x="12.2" y="727.6" textLength="219.6" clip-path="url(#terminal-93458103-line-29)">&#160;&#160;&#160;&#160;&#160;&#160;&#160;&#160;margin:&#160;0;</text><text class="terminal-93458103-r13" x="1488.4" y="727.6" textLength="12.2" clip-path="url(#terminal-93458103-line-29)">│</text><text class="terminal-93458103-r1" x="1500.6" y="727.6" textLength="12.2" clip-path="url(#terminal-93458103-line-29)">
</text><text class="terminal-93458103-r13" x="0" y="752" textLength="12.2" clip-path="url(#terminal-93458103-line-30)">└</text><text class="terminal-93458103-r13" x="12.2" y="752" textLength="1476.2" clip-path="url(#terminal-93458103-line-30)">─────────────────────────────────────────────────────────────────────────────────────────────────────────────────────────</text><text class="terminal-93458103-r13" x="1488.4" y="752" textLength="12.2" clip-path="url(#terminal-93458103-line-30)">┘</text>
    </g>
    </g>
</svg>
